HIERARCHY
ROOT root
{
  OFFSET 0.0000 0.0000 0.0000
  CHANNELS 6 Xposition Yposition Zposition Zrotation Xrotation Yrotation
  JOINT lowerback
  {
    OFFSET 0.0000 0.0000 0.0000
    CHANNELS 3 Zrotation Xrotation Yrotation
    JOINT upperback
    {
      OFFSET -0.2975 11.0962 -0.4289
      CHANNELS 3 Zrotation Xrotation Yrotation
      JOINT thorax
      {
        OFFSET -0.0009 11.0405 -0.3169
        CHANNELS 3 Zrotation Xrotation Yrotation
        JOINT neck
        {
          OFFSET 0.1944 11.1642 0.0841
          CHANNELS 3 Zrotation Xrotation Yrotation
          JOINT head
          {
            OFFSET 1.6277 15.5530 -0.6089
            CHANNELS 3 Zrotation Xrotation Yrotation
            End Site
            {
                OFFSET -0.0000 0.0000 0.0000
            }
          }
        }
      }
      JOINT lshoulderjoint
      {
        OFFSET -0.0009 11.0405 -0.3169
        CHANNELS 3 Zrotation Xrotation Yrotation
        JOINT lhumerus
        {
          OFFSET 14.1669 18.7170 0.1105
          CHANNELS 3 Zrotation Xrotation Yrotation
          JOINT lradius
          {
            OFFSET 29.5186 0.0000 0.0000
            CHANNELS 3 Zrotation Xrotation Yrotation
            JOINT lhand
            {
              OFFSET 23.9354 0.0000 0.0000
              CHANNELS 3 Zrotation Xrotation Yrotation
              End Site
              {
                  OFFSET 0.0000 -0.0000 0.0000
              }
            }
          }
        }
      }
      JOINT rshoulderjoint
      {
        OFFSET -0.0009 11.0405 -0.3169
        CHANNELS 3 Zrotation Xrotation Yrotation
        JOINT rhumerus
        {
          OFFSET -14.2042 18.2168 -0.2511
          CHANNELS 3 Zrotation Xrotation Yrotation
          JOINT rradius
          {
            OFFSET -29.7619 0.0000 0.0000
            CHANNELS 3 Zrotation Xrotation Yrotation
            JOINT rhand
            {
              OFFSET -25.1658 0.0000 0.0000
              CHANNELS 3 Zrotation Xrotation Yrotation
              End Site
              {
                  OFFSET 0.0000 0.0000 0.0000
              }
            }
          }
        }
      }
    }
  }
  JOINT rfemur
  {
    OFFSET -7.7032 -9.8555 2.1513
    CHANNELS 3 Zrotation Xrotation Yrotation
    JOINT rtibia
    {
      OFFSET -7.1353 -40.4666 0.0000
      CHANNELS 3 Zrotation Xrotation Yrotation
      JOINT rfoot
      {
        OFFSET -6.6645 -37.7961 0.0000
        CHANNELS 3 Zrotation Xrotation Yrotation
        JOINT rtoes
        {
          OFFSET -3.4134 -6.6508 11.8768
          CHANNELS 3 Zrotation Xrotation Yrotation
          End Site
          {
              OFFSET 0.0000 0.0000 0.0000
          }
        }
      }
    }
  }
  JOINT lfemur
  {
    OFFSET 8.5590 -9.8555 2.1513
    CHANNELS 3 Zrotation Xrotation Yrotation
    JOINT ltibia
    {
      OFFSET 7.2751 -41.2593 0.0000
      CHANNELS 3 Zrotation Xrotation Yrotation
      JOINT lfoot
      {
        OFFSET 6.5686 -37.2525 -0.0000
        CHANNELS 3 Zrotation Xrotation Yrotation
        JOINT ltoes
        {
          OFFSET 3.2326 -4.1860 10.4122
          CHANNELS 3 Zrotation Xrotation Yrotation
          End Site
          {
              OFFSET -0.0000 -0.0000 0.0000
          }
        }
      }
    }
  }
}
MOTION
Frames:	1
Frame Time:	0.008333
-159.4884 94.9058 -200.7184 -4.80 7.97 33.68 -2.74 -16.62 0.77 -0.06 -1.51 1.53 3.41 14.97 0.33 0.00 0.00 0.00 0.00 0.00 0.00 -83.25 -1.08 -165.30 -2.89 -12.09 -155.20 0.00 -0.00 -54.49 24.69 34.00 8.65 91.62 2.45 164.76 13.67 -10.12 172.41 -0.00 -0.00 72.21 -16.04 36.85 -12.59 3.02 3.34 -16.60 1.01 24.56 -4.62 -2.20 7.88 19.39 0.00 -0.00 0.00 -6.49 -41.23 12.40 -2.08 33.94 6.81 0.00 -0.00 0.00 0.00 -0.00 0.00 
